<mxfile host="65bd71144e" scale="4" border="0">
    <diagram id="Rwav-2pmacAWZ5hnNieE" name="Page-1">
        <mxGraphModel dx="465" dy="372" grid="1" gridSize="10" guides="1" tooltips="1" connect="1" arrows="1" fold="1" page="1" pageScale="1" pageWidth="827" pageHeight="1169" math="0" shadow="0">
            <root>
                <mxCell id="0"/>
                <mxCell id="1" parent="0"/>
                <mxCell id="16" value="" style="rounded=1;whiteSpace=wrap;html=1;labelBackgroundColor=none;labelBorderColor=none;fontFamily=Comic Sans MS;fontSize=16;fontColor=#FFFFFF;fillColor=#D4B3FF;gradientColor=#D60AFF;strokeColor=none;gradientDirection=north;arcSize=50;" parent="1" vertex="1">
                    <mxGeometry x="-0.35999999999999943" width="80" height="80" as="geometry"/>
                </mxCell>
                <mxCell id="25" style="edgeStyle=none;html=1;strokeColor=#ffffff;strokeWidth=2;startArrow=none;startFill=0;endArrow=none;endFill=0;sourcePerimeterSpacing=-3;targetPerimeterSpacing=-3;" edge="1" parent="1" source="20" target="22">
                    <mxGeometry relative="1" as="geometry"/>
                </mxCell>
                <mxCell id="20" value="" style="ellipse;whiteSpace=wrap;html=1;aspect=fixed;fillColor=default;gradientColor=none;strokeColor=none;" vertex="1" parent="1">
                    <mxGeometry x="20" y="51" width="13" height="13" as="geometry"/>
                </mxCell>
                <mxCell id="21" value="" style="ellipse;whiteSpace=wrap;html=1;aspect=fixed;fillColor=default;gradientColor=none;strokeColor=none;" vertex="1" parent="1">
                    <mxGeometry x="20" y="20" width="13" height="13" as="geometry"/>
                </mxCell>
                <mxCell id="26" style="edgeStyle=none;html=1;strokeColor=#ffffff;endArrow=none;endFill=0;strokeWidth=4;targetPerimeterSpacing=-2;sourcePerimeterSpacing=-2;" edge="1" parent="1" source="22" target="21">
                    <mxGeometry relative="1" as="geometry"/>
                </mxCell>
                <mxCell id="22" value="" style="ellipse;whiteSpace=wrap;html=1;aspect=fixed;fillColor=default;gradientColor=none;strokeColor=none;" vertex="1" parent="1">
                    <mxGeometry x="50" y="30" width="13" height="13" as="geometry"/>
                </mxCell>
            </root>
        </mxGraphModel>
    </diagram>
</mxfile>